<mxfile host="65bd71144e">
    <diagram id="2U1rnyTn8_1yYYpk8yaP" name="Page-1">
        <mxGraphModel dx="662" dy="461" grid="1" gridSize="10" guides="1" tooltips="1" connect="1" arrows="1" fold="1" page="1" pageScale="1" pageWidth="827" pageHeight="1169" math="0" shadow="0">
            <root>
                <mxCell id="0"/>
                <mxCell id="1" parent="0"/>
                <mxCell id="2" value="" style="edgeStyle=none;html=1;" edge="1" parent="1" source="3">
                    <mxGeometry relative="1" as="geometry">
                        <mxPoint x="430" y="820" as="targetPoint"/>
                        <Array as="points">
                            <mxPoint x="430" y="370"/>
                            <mxPoint x="470" y="410"/>
                            <mxPoint x="570" y="410"/>
                            <mxPoint x="570" y="450"/>
                            <mxPoint x="570" y="730"/>
                            <mxPoint x="430" y="730"/>
                        </Array>
                    </mxGeometry>
                </mxCell>
                <mxCell id="3" value="Inicio" style="ellipse;whiteSpace=wrap;html=1;fillColor=#a20025;fontColor=#ffffff;strokeColor=#6F0000;" vertex="1" parent="1">
                    <mxGeometry x="370" y="150" width="120" height="80" as="geometry"/>
                </mxCell>
                <mxCell id="4" value="Gasto_agua &quot;GAm3&quot;" style="shape=parallelogram;perimeter=parallelogramPerimeter;whiteSpace=wrap;html=1;fixedSize=1;fillColor=#008a00;fontColor=#ffffff;strokeColor=#005700;" vertex="1" parent="1">
                    <mxGeometry x="360" y="270" width="140" height="70" as="geometry"/>
                </mxCell>
                <mxCell id="5" style="edgeStyle=none;html=1;exitX=0;exitY=0.5;exitDx=0;exitDy=0;" edge="1" parent="1" source="6">
                    <mxGeometry relative="1" as="geometry">
                        <mxPoint x="430" y="810" as="targetPoint"/>
                        <Array as="points">
                            <mxPoint x="270" y="410"/>
                            <mxPoint x="270" y="490"/>
                            <mxPoint x="140" y="490"/>
                            <mxPoint x="140" y="730"/>
                            <mxPoint x="430" y="730"/>
                        </Array>
                    </mxGeometry>
                </mxCell>
                <mxCell id="6" value="GAm3&lt;br&gt;&amp;lt;50m3" style="rhombus;whiteSpace=wrap;html=1;fillColor=#e3c800;fontColor=#000000;strokeColor=#B09500;" vertex="1" parent="1">
                    <mxGeometry x="390" y="370" width="80" height="80" as="geometry"/>
                </mxCell>
                <mxCell id="7" value="GAm3=10000" style="rounded=0;whiteSpace=wrap;html=1;fillColor=#6a00ff;fontColor=#ffffff;strokeColor=#3700CC;" vertex="1" parent="1">
                    <mxGeometry x="510" y="450" width="120" height="60" as="geometry"/>
                </mxCell>
                <mxCell id="8" style="edgeStyle=none;html=1;exitX=1;exitY=0.5;exitDx=0;exitDy=0;" edge="1" parent="1" source="9">
                    <mxGeometry relative="1" as="geometry">
                        <mxPoint x="430" y="820" as="targetPoint"/>
                        <Array as="points">
                            <mxPoint x="400" y="490"/>
                            <mxPoint x="400" y="730"/>
                            <mxPoint x="430" y="730"/>
                        </Array>
                    </mxGeometry>
                </mxCell>
                <mxCell id="9" value="GAm3&amp;nbsp;&lt;br&gt;&amp;lt; 200m3" style="rhombus;whiteSpace=wrap;html=1;fillColor=#e3c800;fontColor=#000000;strokeColor=#B09500;" vertex="1" parent="1">
                    <mxGeometry x="220" y="440" width="100" height="100" as="geometry"/>
                </mxCell>
                <mxCell id="10" value="GAm3*2000+10000" style="rounded=0;whiteSpace=wrap;html=1;fillColor=#6a00ff;fontColor=#ffffff;strokeColor=#3700CC;" vertex="1" parent="1">
                    <mxGeometry x="350" y="540" width="120" height="60" as="geometry"/>
                </mxCell>
                <mxCell id="11" value="GAm3*3000+10000" style="rounded=0;whiteSpace=wrap;html=1;fillColor=#6a00ff;fontColor=#ffffff;strokeColor=#3700CC;" vertex="1" parent="1">
                    <mxGeometry x="80" y="540" width="120" height="60" as="geometry"/>
                </mxCell>
                <mxCell id="12" value="Fin" style="ellipse;whiteSpace=wrap;html=1;fillColor=#a20025;fontColor=#ffffff;strokeColor=#6F0000;" vertex="1" parent="1">
                    <mxGeometry x="370" y="770" width="120" height="80" as="geometry"/>
                </mxCell>
            </root>
        </mxGraphModel>
    </diagram>
</mxfile>